{
  "asset": {
    "generator": "Codex local generator",
    "version": "2.0"
  },
  "scene": 0,
  "scenes": [
    {
      "nodes": [
        0
      ]
    }
  ],
  "nodes": [
    {
      "mesh": 0,
      "name": "OrbitToy"
    }
  ],
  "meshes": [
    {
      "name": "OrbitToyMesh",
      "primitives": [
        {
          "attributes": {
            "POSITION": 0
          },
          "indices": 1,
          "material": 0,
          "mode": 4
        }
      ]
    }
  ],
  "materials": [
    {
      "name": "OrbitToyMaterial",
      "pbrMetallicRoughness": {
        "baseColorFactor": [
          0.12,
          0.62,
          0.74,
          1.0
        ],
        "metallicFactor": 0.02,
        "roughnessFactor": 0.34
      },
      "doubleSided": false
    }
  ],
  "buffers": [
    {
      "uri": "data:application/octet-stream;base64,",
      "byteLength": 504
    }
  ],
  "bufferViews": [
    {
      "buffer": 0,
      "byteOffset": 0,
      "byteLength": 264,
      "target": 34962
    },
    {
      "buffer": 0,
      "byteOffset": 264,
      "byteLength": 240,
      "target": 34963
    }
  ],
  "accessors": [
    {
      "bufferView": 0,
      "byteOffset": 0,
      "componentType": 5126,
      "count": 22,
      "type": "VEC3",
      "min": [
        -0.9510565162951536,
        -1.0,
        -0.17
      ],
      "max": [
        0.9510565162951535,
        0.8090169943749475,
        0.17
      ]
    },
    {
      "bufferView": 1,
      "byteOffset": 0,
      "componentType": 5123,
      "count": 120,
      "type": "SCALAR",
      "max": [
        21
      ],
      "min": [
        0
      ]
    }
  ]
}